<svg width="512" height="512" viewBox="0 0 512 512" fill="none" xmlns="http://www.w3.org/2000/svg">
  <rect width="512" height="512" rx="64" fill="#8B5CF6"/>
  <path d="M256 96C194.144 96 144 146.144 144 208C144 269.856 194.144 320 256 320C317.856 320 368 269.856 368 208C368 146.144 317.856 96 256 96ZM256 128C301.056 128 336 162.944 336 208C336 253.056 301.056 288 256 288C210.944 288 176 253.056 176 208C176 162.944 210.944 128 256 128Z" fill="white"/>
  <path d="M128 352C128 334.327 142.327 320 160 320H352C369.673 320 384 334.327 384 352V384C384 401.673 369.673 416 352 416H160C142.327 416 128 401.673 128 384V352Z" fill="white"/>
  <circle cx="256" cy="208" r="32" fill="#8B5CF6"/>
  <rect x="192" y="352" width="128" height="32" rx="4" fill="#8B5CF6"/>
</svg>